<svg xmlns="http://www.w3.org/2000/svg" xmlns:xlink="http://www.w3.org/1999/xlink" viewBox="0 0 158.47 175.94"><defs><style>.cls-1{fill:url(#Sfumatura_senza_nome_7);}.cls-2{fill:url(#Sfumatura_senza_nome_7-2);}.cls-3{fill:url(#Sfumatura_senza_nome_7-3);}.cls-4{fill:url(#Sfumatura_senza_nome_7-4);}.cls-5{fill:url(#Sfumatura_senza_nome_7-5);}.cls-6{fill:url(#Sfumatura_senza_nome_7-6);}.cls-7{fill:url(#Sfumatura_senza_nome_7-7);}</style><linearGradient id="Sfumatura_senza_nome_7" x1="21.57" y1="1.21" x2="21.57" y2="174.89" gradientUnits="userSpaceOnUse"><stop offset="0" stop-color="#ff9200"/><stop offset="1" stop-color="#ff4417"/></linearGradient><linearGradient id="Sfumatura_senza_nome_7-2" x1="34.65" y1="1.21" x2="34.65" y2="174.89" xlink:href="#Sfumatura_senza_nome_7"/><linearGradient id="Sfumatura_senza_nome_7-3" x1="87.72" y1="1.21" x2="87.72" y2="174.89" xlink:href="#Sfumatura_senza_nome_7"/><linearGradient id="Sfumatura_senza_nome_7-4" x1="86.08" y1="1.21" x2="86.08" y2="174.89" xlink:href="#Sfumatura_senza_nome_7"/><linearGradient id="Sfumatura_senza_nome_7-5" x1="97.96" y1="1.21" x2="97.96" y2="174.89" xlink:href="#Sfumatura_senza_nome_7"/><linearGradient id="Sfumatura_senza_nome_7-6" x1="99.61" y1="1.21" x2="99.61" y2="174.89" xlink:href="#Sfumatura_senza_nome_7"/><linearGradient id="Sfumatura_senza_nome_7-7" x1="105.11" y1="1.21" x2="105.11" y2="174.89" xlink:href="#Sfumatura_senza_nome_7"/></defs><title>skirat_logo_vettoriale</title><g id="Livello_2" data-name="Livello 2"><g id="Livello_5" data-name="Livello 5"><path class="cls-1" d="M42.34,87.31A21.35,21.35,0,0,0,23,124.67c-6.4,1.22-15.67,1.54-21.28-4.78C-7.48,109.5,22.46,84.6,33.61,85.05c0,0-1.74-8.76,4.53-8.76C43.69,76.29,43.79,82.86,42.34,87.31Z"/><polygon class="cls-2" points="42.8 107.28 40.1 111.58 35.46 108.67 32.54 113.31 28.24 110.61 31.16 105.96 26.5 103.04 29.2 98.74 33.86 101.66 36.78 97.01 41.08 99.71 38.16 104.36 42.8 107.28"/><path class="cls-3" d="M88.3,148a4.22,4.22,0,1,1,3.6-4.76A4.23,4.23,0,0,1,88.3,148Z"/><path class="cls-4" d="M86.65,136.15a4.23,4.23,0,1,1,3.61-4.77A4.23,4.23,0,0,1,86.65,136.15Z"/><path class="cls-5" d="M98.54,134.5a4.23,4.23,0,1,1,3.6-4.76A4.23,4.23,0,0,1,98.54,134.5Z"/><path class="cls-6" d="M100.18,146.39a4.23,4.23,0,1,1,3.61-4.77A4.23,4.23,0,0,1,100.18,146.39Z"/><path class="cls-7" d="M144.38,64.68c0-9.58-6.89-24.32-24.32-24.32S95.73,54.85,95.73,65.44s9.24,21,25.5,29.19,27.16,22.34,27.16,39.31-13,42-41.07,42c-21.11,0-31.57-11.33-36.68-21.32A26.32,26.32,0,0,0,92,165.81c26.89,0,34.22-26.25,23.08-41.56,1.46-1.61,7.44-8.82,1.82-12.72-5.34-3.71-9,3.21-10,5.52A30.5,30.5,0,0,0,92,113.49c-29,0-38.77-16.85-40.3-18.87C61.48,107,92,102,92,102,73.81,96.62,54.31,81.09,54.31,52.08,54.31,15.07,87.37,0,106.39,0s52.08,14.44,52.08,50.6c0,24-17,33.08-28.34,36.45C139.77,82.75,144.38,72.16,144.38,64.68Z"/></g></g></svg>