<svg xmlns="http://www.w3.org/2000/svg" xmlns:xlink="http://www.w3.org/1999/xlink" viewBox="0 0 320.79 283.89"><defs><style>.cls-1{fill:url(#Sfumatura_senza_nome_7);}.cls-2{fill:url(#Sfumatura_senza_nome_7-2);}.cls-3{fill:url(#Sfumatura_senza_nome_7-3);}.cls-4{fill:url(#Sfumatura_senza_nome_7-4);}.cls-5{fill:url(#Sfumatura_senza_nome_7-5);}.cls-6{fill:url(#Sfumatura_senza_nome_7-6);}.cls-7{fill:url(#Sfumatura_senza_nome_7-7);}.cls-8{font-size:52.38px;fill:#f60;font-family:FuturaBT-Medium, Futura Md BT;font-weight:500;}</style><linearGradient id="Sfumatura_senza_nome_7" x1="96.17" y1="1.21" x2="96.17" y2="174.89" gradientUnits="userSpaceOnUse"><stop offset="0" stop-color="#ff9200"/><stop offset="1" stop-color="#ff4417"/></linearGradient><linearGradient id="Sfumatura_senza_nome_7-2" x1="109.26" y1="1.21" x2="109.26" y2="174.89" xlink:href="#Sfumatura_senza_nome_7"/><linearGradient id="Sfumatura_senza_nome_7-3" x1="162.32" y1="1.21" x2="162.32" y2="174.89" xlink:href="#Sfumatura_senza_nome_7"/><linearGradient id="Sfumatura_senza_nome_7-4" x1="160.68" y1="1.21" x2="160.68" y2="174.89" xlink:href="#Sfumatura_senza_nome_7"/><linearGradient id="Sfumatura_senza_nome_7-5" x1="172.56" y1="1.21" x2="172.56" y2="174.89" xlink:href="#Sfumatura_senza_nome_7"/><linearGradient id="Sfumatura_senza_nome_7-6" x1="174.21" y1="1.21" x2="174.21" y2="174.89" xlink:href="#Sfumatura_senza_nome_7"/><linearGradient id="Sfumatura_senza_nome_7-7" x1="179.71" y1="1.21" x2="179.71" y2="174.89" xlink:href="#Sfumatura_senza_nome_7"/></defs><title>skirat_vettoriale</title><g id="Livello_2" data-name="Livello 2"><g id="Livello_5" data-name="Livello 5"><path class="cls-1" d="M117,87.31a21.35,21.35,0,0,0-19.33,37.36c-6.4,1.22-15.67,1.54-21.28-4.78C67.13,109.5,97.07,84.6,108.22,85.05c0,0-1.74-8.76,4.53-8.76C118.3,76.29,118.4,82.86,117,87.31Z"/><polygon class="cls-2" points="117.41 107.28 114.71 111.58 110.07 108.67 107.15 113.31 102.85 110.61 105.77 105.96 101.11 103.04 103.81 98.74 108.47 101.66 111.39 97.01 115.69 99.71 112.77 104.36 117.41 107.28"/><path class="cls-3" d="M162.91,148a4.22,4.22,0,1,1,3.6-4.76A4.23,4.23,0,0,1,162.91,148Z"/><path class="cls-4" d="M161.26,136.15a4.23,4.23,0,1,1,3.61-4.77A4.23,4.23,0,0,1,161.26,136.15Z"/><path class="cls-5" d="M173.15,134.5a4.23,4.23,0,1,1,3.6-4.76A4.23,4.23,0,0,1,173.15,134.5Z"/><path class="cls-6" d="M174.79,146.39a4.23,4.23,0,1,1,3.61-4.77A4.23,4.23,0,0,1,174.79,146.39Z"/><path class="cls-7" d="M219,64.68c0-9.58-6.89-24.32-24.32-24.32s-24.33,14.49-24.33,25.08,9.24,21,25.5,29.19S223,117,223,133.94s-13,42-41.07,42c-21.11,0-31.57-11.33-36.68-21.32a26.32,26.32,0,0,0,21.39,11.19c26.89,0,34.22-26.25,23.08-41.56,1.46-1.61,7.44-8.82,1.82-12.72-5.34-3.71-9,3.21-10,5.52a30.5,30.5,0,0,0-14.9-3.56c-29,0-38.77-16.85-40.3-18.87,9.74,12.39,40.3,7.35,40.3,7.35-18.23-5.35-37.73-20.88-37.73-49.89C128.92,15.07,162,0,181,0s52.08,14.44,52.08,50.6c0,24-17,33.08-28.34,36.45C214.38,82.75,219,72.16,219,64.68Z"/><text class="cls-8" transform="translate(0 271.54)">Skirat Games</text></g></g></svg>