<svg xmlns="http://www.w3.org/2000/svg" viewBox="0 0 158.48 175.94"><defs><style>.cls-1{fill:#f60;}</style></defs><title>skirat_logo2_vettoriale</title><g id="Livello_2" data-name="Livello 2"><g id="Livello_5" data-name="Livello 5"><path class="cls-1" d="M144.39,64.68c0-9.58-6.89-24.32-24.32-24.32S95.74,54.85,95.74,65.44s9.24,21,25.5,29.19S148.4,117,148.4,133.94s-13,42-41.07,42c-21.11,0-31.57-11.33-36.68-21.32A26.32,26.32,0,0,0,92,165.81c26.89,0,34.22-26.25,23.08-41.56,1.46-1.61,7.44-8.82,1.82-12.72-5.34-3.71-9,3.21-10,5.52a30.5,30.5,0,0,0-14.9-3.56c-29,0-38.77-16.85-40.3-18.87C61.49,107,92.05,102,92.05,102,73.82,96.62,54.32,81.09,54.32,52.08,54.32,15.07,87.38,0,106.4,0s52.08,14.44,52.08,50.6c0,24-17,33.08-28.34,36.45C139.78,82.75,144.39,72.16,144.39,64.68Z"/><path class="cls-1" d="M42.34,87.31A21.35,21.35,0,0,0,23,124.67c-6.4,1.22-15.67,1.54-21.28-4.78C-7.48,109.5,22.46,84.6,33.61,85.05c0,0-1.74-8.76,4.53-8.76C43.69,76.29,43.79,82.86,42.34,87.31Z"/><polygon class="cls-1" points="42.81 107.28 40.1 111.58 35.46 108.66 32.55 113.31 28.24 110.61 31.16 105.96 26.51 103.04 29.21 98.74 33.86 101.66 36.78 97.01 41.08 99.71 38.16 104.36 42.81 107.28"/><circle class="cls-1" cx="97.96" cy="130.32" r="4.22"/><circle class="cls-1" cx="99.61" cy="142.2" r="4.22"/><circle class="cls-1" cx="86.07" cy="131.96" r="4.22"/><circle class="cls-1" cx="87.72" cy="143.85" r="4.22"/></g></g></svg>